<mxfile modified="2022-03-22T17:31:10.689Z" host="app.diagrams.net" agent="5.0 (Windows NT 10.0; Win64; x64) AppleWebKit/537.36 (KHTML, like Gecko) Chrome/99.0.4844.74 Safari/537.36 Edg/99.0.1150.46" etag="skTcD6zd4GegF570m3g0" version="17.1.3" type="gitlab">
  <diagram id="WI9T0HZ2pTsCkuznbFz-" name="Page-1">
    <mxGraphModel dx="1162" dy="490" grid="1" gridSize="10" guides="1" tooltips="1" connect="1" arrows="1" fold="1" page="1" pageScale="1" pageWidth="1169" pageHeight="827" math="0" shadow="0">
      <root>
        <mxCell id="0" />
        <mxCell id="1" parent="0" />
        <mxCell id="PUmtHpek0VwcM1CzdRUG-2" value="" style="edgeStyle=orthogonalEdgeStyle;rounded=0;orthogonalLoop=1;jettySize=auto;html=1;" edge="1" parent="1" source="4Gzhii4yNG29Q_BiwtCs-1" target="PUmtHpek0VwcM1CzdRUG-1">
          <mxGeometry relative="1" as="geometry" />
        </mxCell>
        <mxCell id="4Gzhii4yNG29Q_BiwtCs-1" value="User" style="verticalLabelPosition=bottom;html=1;verticalAlign=top;align=center;strokeColor=none;fillColor=#00BEF2;shape=mxgraph.azure.computer;pointerEvents=1;" parent="1" vertex="1">
          <mxGeometry x="100" y="300" width="50" height="45" as="geometry" />
        </mxCell>
        <mxCell id="PUmtHpek0VwcM1CzdRUG-5" value="" style="edgeStyle=orthogonalEdgeStyle;rounded=0;orthogonalLoop=1;jettySize=auto;html=1;" edge="1" parent="1" source="PUmtHpek0VwcM1CzdRUG-1" target="PUmtHpek0VwcM1CzdRUG-4">
          <mxGeometry relative="1" as="geometry" />
        </mxCell>
        <mxCell id="PUmtHpek0VwcM1CzdRUG-1" value="URL" style="ellipse;whiteSpace=wrap;html=1;verticalAlign=top;fillColor=#00BEF2;strokeColor=none;" vertex="1" parent="1">
          <mxGeometry x="260" y="303.75" width="85" height="37.5" as="geometry" />
        </mxCell>
        <mxCell id="PUmtHpek0VwcM1CzdRUG-3" value="Accessing the page" style="text;html=1;align=center;verticalAlign=middle;resizable=0;points=[];autosize=1;strokeColor=none;fillColor=none;" vertex="1" parent="1">
          <mxGeometry x="145" y="325" width="120" height="20" as="geometry" />
        </mxCell>
        <mxCell id="PUmtHpek0VwcM1CzdRUG-7" style="edgeStyle=orthogonalEdgeStyle;rounded=0;orthogonalLoop=1;jettySize=auto;html=1;exitX=0.5;exitY=0;exitDx=0;exitDy=0;entryX=0.5;entryY=0;entryDx=0;entryDy=0;" edge="1" parent="1" source="PUmtHpek0VwcM1CzdRUG-4" target="PUmtHpek0VwcM1CzdRUG-1">
          <mxGeometry relative="1" as="geometry" />
        </mxCell>
        <mxCell id="PUmtHpek0VwcM1CzdRUG-9" style="edgeStyle=orthogonalEdgeStyle;rounded=0;orthogonalLoop=1;jettySize=auto;html=1;exitX=1;exitY=0.5;exitDx=0;exitDy=0;" edge="1" parent="1" source="PUmtHpek0VwcM1CzdRUG-4">
          <mxGeometry relative="1" as="geometry">
            <mxPoint x="560" y="323" as="targetPoint" />
          </mxGeometry>
        </mxCell>
        <mxCell id="PUmtHpek0VwcM1CzdRUG-4" value="" style="rhombus;whiteSpace=wrap;html=1;verticalAlign=top;fillColor=#00BEF2;strokeColor=none;" vertex="1" parent="1">
          <mxGeometry x="427.5" y="282.5" width="80" height="80" as="geometry" />
        </mxCell>
        <mxCell id="PUmtHpek0VwcM1CzdRUG-6" value="Authenticated" style="text;html=1;align=center;verticalAlign=middle;resizable=0;points=[];autosize=1;strokeColor=none;fillColor=none;" vertex="1" parent="1">
          <mxGeometry x="422.5" y="312.5" width="90" height="20" as="geometry" />
        </mxCell>
        <mxCell id="PUmtHpek0VwcM1CzdRUG-8" value="No" style="text;html=1;align=center;verticalAlign=middle;resizable=0;points=[];autosize=1;strokeColor=none;fillColor=none;" vertex="1" parent="1">
          <mxGeometry x="375" y="230" width="30" height="20" as="geometry" />
        </mxCell>
        <mxCell id="PUmtHpek0VwcM1CzdRUG-10" value="Yes" style="text;html=1;align=center;verticalAlign=middle;resizable=0;points=[];autosize=1;strokeColor=none;fillColor=none;" vertex="1" parent="1">
          <mxGeometry x="512.5" y="300" width="30" height="20" as="geometry" />
        </mxCell>
        <mxCell id="PUmtHpek0VwcM1CzdRUG-11" value="Login page" style="sketch=0;aspect=fixed;pointerEvents=1;shadow=0;dashed=0;html=1;strokeColor=none;labelPosition=center;verticalLabelPosition=bottom;verticalAlign=top;align=center;fillColor=#00188D;shape=mxgraph.azure.computer" vertex="1" parent="1">
          <mxGeometry x="590.33" y="413.5" width="55.56" height="50" as="geometry" />
        </mxCell>
        <mxCell id="PUmtHpek0VwcM1CzdRUG-16" style="edgeStyle=orthogonalEdgeStyle;rounded=0;orthogonalLoop=1;jettySize=auto;html=1;exitX=0.5;exitY=1;exitDx=0;exitDy=0;entryX=0.5;entryY=0;entryDx=0;entryDy=0;" edge="1" parent="1" source="PUmtHpek0VwcM1CzdRUG-12" target="PUmtHpek0VwcM1CzdRUG-13">
          <mxGeometry relative="1" as="geometry" />
        </mxCell>
        <mxCell id="PUmtHpek0VwcM1CzdRUG-12" value="" style="image;html=1;image=img/lib/clip_art/computers/Database_128x128.png" vertex="1" parent="1">
          <mxGeometry x="576.67" y="170" width="82.22" height="67.5" as="geometry" />
        </mxCell>
        <mxCell id="PUmtHpek0VwcM1CzdRUG-15" style="edgeStyle=orthogonalEdgeStyle;rounded=0;orthogonalLoop=1;jettySize=auto;html=1;exitX=0.5;exitY=1;exitDx=0;exitDy=0;" edge="1" parent="1" source="PUmtHpek0VwcM1CzdRUG-13" target="PUmtHpek0VwcM1CzdRUG-11">
          <mxGeometry relative="1" as="geometry" />
        </mxCell>
        <mxCell id="PUmtHpek0VwcM1CzdRUG-13" value="Grant access" style="ellipse;whiteSpace=wrap;html=1;" vertex="1" parent="1">
          <mxGeometry x="566.67" y="300" width="102.5" height="47.5" as="geometry" />
        </mxCell>
      </root>
    </mxGraphModel>
  </diagram>
</mxfile>
